<svg xmlns="http://www.w3.org/2000/svg" viewBox="0 0 83.0415 24">
  <!-- The Crossy lockup: mark 24, gap 6, Crossy 18 SemiBold. Emitted by generate.py. -->
  <rect y="16" width="8" height="8" fill="#1D1B18"/>
  <rect x="8" y="8" width="8" height="8" fill="#1D1B18"/>
  <rect x="16" width="8" height="8" fill="#1D1B18"/>
  <rect x="16" y="16" width="8" height="8" fill="#978365"/>
  <path d="M8 0v24M16 0v24M0 8h24M0 16h24" stroke="#1D1B18" stroke-width="1.25" fill="none"/>
  <g fill="#1D1B18">
    <path transform="translate(30 18.048) scale(0.018 -0.018)" d="M596 127C516 90 468 68 410 68C275 68 180 179 180 372C180 549 243 639 355 639C407 639 459 618 511 578L548 473L596 483V643C533 681 462 700 392 700C206 700 30 568 30 328C30 108 182 -12 355 -12C446 -12 531 28 621 82Z"/>
    <path transform="translate(41.1195 18.048) scale(0.018 -0.018)" d="M314 0 320 46 245 60C232 63 227 68 227 79V385L305 420C321 413 336 400 336 373V346H376C417 346 450 372 450 418C450 474 400 497 355 497C346 497 336 496 327 493L227 427V497L22 475L25 430L100 414V61L29 46L24 0Z"/>
    <path transform="translate(48.945 18.048) scale(0.018 -0.018)" d="M278 31C185 31 152 198 152 277C152 343 174 451 255 451C349 451 381 283 381 202C381 144 358 31 278 31ZM255 -12C382 -12 510 94 510 254C510 400 428 497 278 497C151 497 23 391 23 231C23 85 105 -12 255 -12Z"/>
    <path transform="translate(58.6065 18.048) scale(0.018 -0.018)" d="M357 348 362 464C322 487 279 497 234 497C136 497 46 447 46 344C46 201 290 194 290 90C290 49 256 34 220 34C183 34 141 53 109 85L87 176L45 171L40 39C80 5 142 -12 199 -12C298 -12 394 41 394 152C394 306 146 302 146 405C146 435 169 450 201 450C236 450 273 431 293 415L317 343Z"/>
    <path transform="translate(66.162 18.048) scale(0.018 -0.018)" d="M357 348 362 464C322 487 279 497 234 497C136 497 46 447 46 344C46 201 290 194 290 90C290 49 256 34 220 34C183 34 141 53 109 85L87 176L45 171L40 39C80 5 142 -12 199 -12C298 -12 394 41 394 152C394 306 146 302 146 405C146 435 169 450 201 450C236 450 273 431 293 415L317 343Z"/>
    <path transform="translate(73.1415 18.048) scale(0.018 -0.018)" d="M204 -158C192 -163 181 -166 170 -166C159 -166 147 -162 136 -155V-76H91C49 -76 25 -104 25 -141C25 -186 74 -214 131 -214C200 -214 258 -178 292 -90L491 425L538 437L545 485H355L347 438L403 425C410 423 413 419 413 412C413 408 411 400 408 392L319 141L196 425L263 438L269 485H14L4 437L50 423C59 420 64 414 68 405L263 0Z"/>
  </g>
</svg>
