<svg xmlns="http://www.w3.org/2000/svg" width="1024" height="1024" viewBox="0 0 1024 1024">
  <!-- Crossy app icon (crop-medium, wordless). Anti-diagonal core, its letters retired; the frame slices the outer ring mid-cell. 5x5, cell 256px, block density 0.28, 180-symmetric=True. Full square; iOS masks the corners. -->
  <defs><clipPath id="mask"><rect width="1024" height="1024" rx="0"/></clipPath></defs>
  <rect width="1024" height="1024" rx="0" fill="#121118"/>
  <g clip-path="url(#mask)">
  <rect x="-122.24" y="-122.24" width="244.48" height="244.48" fill="#EDEAE2"/>
  <rect x="-122.24" y="389.76" width="244.48" height="244.48" fill="#EDEAE2"/>
  <rect x="-122.24" y="645.76" width="244.48" height="244.48" fill="#EDEAE2"/>
  <rect x="-122.24" y="901.76" width="244.48" height="244.48" fill="#EDEAE2"/>
  <rect x="133.76" y="133.76" width="244.48" height="244.48" fill="#EDEAE2"/>
  <rect x="133.76" y="389.76" width="244.48" height="244.48" fill="#EDEAE2"/>
  <rect x="133.76" y="901.76" width="244.48" height="244.48" fill="#EDEAE2"/>
  <rect x="389.76" y="-122.24" width="244.48" height="244.48" fill="#EDEAE2"/>
  <rect x="389.76" y="133.76" width="244.48" height="244.48" fill="#EDEAE2"/>
  <rect x="389.76" y="645.76" width="244.48" height="244.48" fill="#EDEAE2"/>
  <rect x="389.76" y="901.76" width="244.48" height="244.48" fill="#EDEAE2"/>
  <rect x="645.76" y="-122.24" width="244.48" height="244.48" fill="#EDEAE2"/>
  <rect x="645.76" y="389.76" width="244.48" height="244.48" fill="#EDEAE2"/>
  <rect x="645.76" y="645.76" width="244.48" height="244.48" fill="#978365"/>
  <rect x="901.76" y="-122.24" width="244.48" height="244.48" fill="#EDEAE2"/>
  <rect x="901.76" y="133.76" width="244.48" height="244.48" fill="#EDEAE2"/>
  <rect x="901.76" y="389.76" width="244.48" height="244.48" fill="#EDEAE2"/>
  <rect x="901.76" y="901.76" width="244.48" height="244.48" fill="#EDEAE2"/>
  </g>
</svg>
