<svg xmlns="http://www.w3.org/2000/svg" width="1024" height="1024" viewBox="0 0 1024 1024">
  <!-- Crossy app icon (crop-medium, wordless). Anti-diagonal core, its letters retired; the frame slices the outer ring mid-cell. 5x5, cell 256px, block density 0.28, 180-symmetric=True. Full square; iOS masks the corners. -->
  <defs><clipPath id="mask"><rect width="1024" height="1024" rx="0"/></clipPath></defs>
  <rect width="1024" height="1024" rx="0" fill="#F2F1EC"/>
  <g clip-path="url(#mask)">
  <rect x="640" y="640" width="256" height="256" fill="#978365"/>
  <rect x="-128" y="128" width="256" height="256" fill="#1D1B18"/>
  <rect x="128" y="-128" width="256" height="256" fill="#1D1B18"/>
  <rect x="896" y="640" width="256" height="256" fill="#1D1B18"/>
  <rect x="640" y="896" width="256" height="256" fill="#1D1B18"/>
  <rect x="384" y="384" width="256" height="256" fill="#1D1B18"/>
  <rect x="640" y="128" width="256" height="256" fill="#1D1B18"/>
  <rect x="128" y="640" width="256" height="256" fill="#1D1B18"/>
  <line x1="-128" y1="-384" x2="-128" y2="1408" stroke="#1D1B18" stroke-width="11.52"/>
  <line x1="-384" y1="-128" x2="1408" y2="-128" stroke="#1D1B18" stroke-width="11.52"/>
  <line x1="128" y1="-384" x2="128" y2="1408" stroke="#1D1B18" stroke-width="11.52"/>
  <line x1="-384" y1="128" x2="1408" y2="128" stroke="#1D1B18" stroke-width="11.52"/>
  <line x1="384" y1="-384" x2="384" y2="1408" stroke="#1D1B18" stroke-width="11.52"/>
  <line x1="-384" y1="384" x2="1408" y2="384" stroke="#1D1B18" stroke-width="11.52"/>
  <line x1="640" y1="-384" x2="640" y2="1408" stroke="#1D1B18" stroke-width="11.52"/>
  <line x1="-384" y1="640" x2="1408" y2="640" stroke="#1D1B18" stroke-width="11.52"/>
  <line x1="896" y1="-384" x2="896" y2="1408" stroke="#1D1B18" stroke-width="11.52"/>
  <line x1="-384" y1="896" x2="1408" y2="896" stroke="#1D1B18" stroke-width="11.52"/>
  <line x1="1152" y1="-384" x2="1152" y2="1408" stroke="#1D1B18" stroke-width="11.52"/>
  <line x1="-384" y1="1152" x2="1408" y2="1152" stroke="#1D1B18" stroke-width="11.52"/>
  </g>
</svg>
